# xmcd
#
# Track frame offsets: 
#        150
#        20620
#        45063
#        62916
#        87304
#        101820
#        131002
#        146099
#        163536
#        173779
#
# Disc length: 2634 seconds
#
# Revision: 0
# Processed by: cddbd v1.4PL0 Copyright (c) Steve Scherf et al.
# Submitted via: ExactAudioCopy v0.90b4
#
DISCID=830a480a
DTITLE=Van Morrison - Wakefield, disc 2
DYEAR=1984
DGENRE=Celtic
TTITLE0=Help Me
TTITLE1=Vanlose Stairway
TTITLE2=She Gives Me Religion
TTITLE3=Ballerina
TTITLE4=Cry For Home
TTITLE5=Summertime In England
TTITLE6=Celtic Swing
TTITLE7=Cleaning Windows
TTITLE8=Full Force Gale
TTITLE9=What Would I Do
EXTD=
EXTT0=
EXTT1=
EXTT2=
EXTT3=
EXTT4=
EXTT5=
EXTT6=
EXTT7=
EXTT8=
EXTT9=
PLAYORDER=
